<svg width="35" height="35" viewBox="0 0 35 35" fill="none" xmlns="http://www.w3.org/2000/svg">
<path d="M6.31559 18.8458C7.43384 19.6845 9.03129 18.886 9.03129 17.4882V16.3716C15.2468 16.4955 19.4931 18.6445 21.9839 20.4558C24.7691 22.4811 26.0291 24.5363 26.041 24.5561C26.1448 24.729 26.3304 24.8301 26.5249 24.8301C26.835 24.8301 27.0893 24.5787 27.0893 24.2658C27.0893 16.1762 20.507 9.59471 12.4163 9.59471H9.03129V8.47689C9.03129 7.07912 7.4337 6.28074 6.31566 7.11918L0.903101 11.1781C-0.300716 12.0808 -0.301351 13.8838 0.903101 14.787L6.31559 18.8458ZM1.58032 12.081L6.99287 8.02208C7.36802 7.74065 7.9026 8.0072 7.9026 8.47689C7.9026 10.5934 7.90281 9.81612 7.90154 11.8514C7.90133 12.1631 8.15387 12.4159 8.46553 12.4161C8.77846 12.4161 9.03002 12.1627 9.03023 11.8521L9.03093 10.7233H12.4163C19.2643 10.7233 24.9414 15.8305 25.8374 22.4358C22.1082 18.174 16.0798 15.2377 8.46694 15.2375C8.15542 15.2375 7.9026 15.4902 7.9026 15.8018L7.9026 17.4882C7.9026 17.9548 7.37035 18.2262 6.99287 17.943L1.58032 13.8841C0.978935 13.4332 0.978512 12.5321 1.58032 12.081Z" fill="#74AF45"/>
<path d="M34.1184 12.0458C31.1044 2.85999 21.2301 -2.13614 12.0418 0.877919C11.7457 0.975114 11.5844 1.29386 11.6816 1.59003C11.7787 1.88606 12.0975 2.0473 12.3938 1.95025C20.9877 -0.869067 30.226 3.80325 33.046 12.3977C35.8656 20.9908 31.1927 30.2276 22.5972 33.0472C14.0032 35.8665 4.76488 31.1941 1.94492 22.5998C1.84778 22.3037 1.529 22.1425 1.23272 22.2396C0.936579 22.3368 0.775318 22.6555 0.872455 22.9517C3.316 30.399 10.2231 35.0004 17.4776 35C29.4611 34.9995 37.8092 23.2949 34.1184 12.0458Z" fill="#74AF45"/>
</svg>
