<svg width="120" height="90" viewBox="0 0 120 90" fill="none" xmlns="http://www.w3.org/2000/svg">
<path d="M15.6573 2.98601C31.6573 -10.3473 40.3239 26.3193 66.324 8.98601C92.324 -8.34731 132.991 62.986 87.6573 65.6527C42.3239 68.3193 -5.00935 116.919 15.6573 65.6527C36.324 14.386 -0.342685 16.3194 15.6573 2.98601Z" fill="#74AF45" fill-opacity="0.15"/>
<path d="M42 34.6666H45.5436C45.4108 35.0361 45.3905 35.4368 45.4853 35.8179C45.5801 36.199 45.7858 36.5434 46.0763 36.8076L51.5495 41.8243C51.5541 41.8284 51.5583 41.8326 51.5634 41.8366L60.2128 49.3333H60C59.8232 49.3333 59.6536 49.4035 59.5286 49.5285C59.4036 49.6535 59.3333 49.8231 59.3333 49.9999V52.6666C59.3333 52.8434 59.4036 53.013 59.5286 53.138C59.6536 53.263 59.8232 53.3333 60 53.3333H68C68.1768 53.3333 68.3464 53.263 68.4714 53.138C68.5964 53.013 68.6667 52.8434 68.6667 52.6666V49.9999C68.6667 49.8231 68.5964 49.6535 68.4714 49.5285C68.3464 49.4035 68.1768 49.3333 68 49.3333V48.276L68.357 47.919C68.6675 47.6102 68.9137 47.2429 69.0813 46.8383C69.2489 46.4337 69.3345 45.9999 69.3333 45.562V41.4777L71.75 36.161C71.965 35.6902 71.9882 35.1542 71.8147 34.6666H76.6667C77.1969 34.666 77.7053 34.4551 78.0802 34.0801C78.4551 33.7052 78.6661 33.1968 78.6667 32.6666V31.3333C78.6667 31.1564 78.5964 30.9869 78.4714 30.8618C78.3464 30.7368 78.1768 30.6666 78 30.6666H75.3333V29.9999C75.3333 22.2803 69.053 15.9999 61.3333 15.9999V14.6666H62C62.1768 14.6666 62.3464 14.5963 62.4714 14.4713C62.5964 14.3463 62.6667 14.1767 62.6667 13.9999C62.6667 13.8231 62.5964 13.6535 62.4714 13.5285C62.3464 13.4035 62.1768 13.3333 62 13.3333H56.6667C56.4899 13.3333 56.3203 13.4035 56.1953 13.5285C56.0702 13.6535 56 13.8231 56 13.9999C56 14.1767 56.0702 14.3463 56.1953 14.4713C56.3203 14.5963 56.4899 14.6666 56.6667 14.6666H57.3333V15.9999C49.6137 15.9999 43.3333 22.2803 43.3333 29.9999V30.6666H40.6667C40.4899 30.6666 40.3203 30.7368 40.1953 30.8618C40.0702 30.9869 40 31.1564 40 31.3333V32.6666C40.0006 33.1968 40.2115 33.7052 40.5865 34.0801C40.9614 34.4551 41.4698 34.666 42 34.6666ZM46.8064 35.0916C46.8533 34.9652 46.9383 34.8565 47.0495 34.7803C47.1608 34.7042 47.293 34.6645 47.4278 34.6666H47.8083C47.9363 34.6667 48.0615 34.7037 48.1691 34.7729C48.2767 34.8422 48.3621 34.9409 48.4153 35.0573L48.9164 36.1598V36.1608L50.0398 38.6321L46.9773 35.8249C46.8764 35.7354 46.8059 35.6167 46.7753 35.4854C46.7447 35.3541 46.7555 35.2165 46.8064 35.0916ZM67.3333 51.9999H60.6667V50.6666H67.3333V51.9999ZM70.4898 34.9723C70.5512 35.0657 70.5877 35.1732 70.5958 35.2847C70.604 35.3961 70.5834 35.5078 70.5363 35.6091L68.0598 41.0573C68.0204 41.144 68 41.2381 68 41.3333V45.562C68.0007 45.8248 67.9493 46.085 67.8488 46.3278C67.7482 46.5705 67.6005 46.791 67.4143 46.9763L66.8619 47.5285C66.8 47.5904 66.7509 47.6639 66.7174 47.7448C66.6839 47.8257 66.6667 47.9124 66.6667 47.9999V49.3333H62.2487L52.5467 40.9249L50.13 35.6092C50.0838 35.5076 50.0639 35.396 50.072 35.2847C50.0801 35.1734 50.116 35.066 50.1765 34.9722C50.2369 34.8784 50.3199 34.8012 50.4179 34.7478C50.5159 34.6944 50.6257 34.6665 50.7373 34.6666H51.1759C51.2998 34.6661 51.4214 34.7004 51.5268 34.7656C51.6322 34.8307 51.7172 34.9241 51.7723 35.0351L54.0704 39.6314C54.1434 39.7775 54.2675 39.8916 54.4191 39.9523L61.0858 42.6189C61.2159 42.6709 61.3591 42.6807 61.495 42.6467L64.1617 41.98C64.2511 41.9577 64.3349 41.917 64.4078 41.8606C64.4807 41.8043 64.5411 41.7334 64.5853 41.6525L68.2063 35.014C68.2636 34.9088 68.3483 34.8211 68.4513 34.7599C68.5543 34.6988 68.6719 34.6666 68.7917 34.6666H69.9295C70.0412 34.6656 70.1513 34.6931 70.2494 34.7466C70.3475 34.8001 70.4302 34.8778 70.4898 34.9723ZM53.0787 34.6666H66.877L63.5548 40.7574L61.3808 41.3008L55.15 38.8083L53.0787 34.6666ZM58.6667 14.6666H60V15.9999H58.6667V14.6666ZM44.6667 29.9999C44.6667 23.0155 50.3489 17.3333 57.3333 17.3333H61.3333C68.3178 17.3333 74 23.0155 74 29.9999V30.6666H44.6667V29.9999ZM41.3333 31.9999H77.3333V32.6666C77.3331 32.8433 77.2628 33.0128 77.1379 33.1378C77.0129 33.2628 76.8434 33.3331 76.6667 33.3333H42C41.8233 33.3331 41.6538 33.2628 41.5288 33.1378C41.4038 33.0128 41.3335 32.8433 41.3333 32.6666V31.9999Z" fill="white"/>
<path d="M5.83984 64.9954C4.23177 64.5331 3.0599 63.9667 2.32422 63.2961C1.59505 62.6191 1.23047 61.7857 1.23047 60.7961C1.23047 59.6764 1.67643 58.7519 2.56836 58.0227C3.4668 57.287 4.63216 56.9192 6.06445 56.9192C7.04102 56.9192 7.91016 57.108 8.67188 57.4856C9.4401 57.8632 10.0326 58.384 10.4492 59.0481C10.8724 59.7122 11.084 60.4381 11.084 61.2258H9.19922C9.19922 60.3665 8.92578 59.6926 8.37891 59.2043C7.83203 58.7096 7.06055 58.4622 6.06445 58.4622C5.13997 58.4622 4.41732 58.6672 3.89648 59.0774C3.38216 59.481 3.125 60.0442 3.125 60.7668C3.125 61.3463 3.36914 61.8378 3.85742 62.2415C4.35221 62.6386 5.1888 63.0032 6.36719 63.3352C7.55208 63.6672 8.47656 64.0351 9.14062 64.4387C9.8112 64.8359 10.306 65.3014 10.625 65.8352C10.9505 66.3691 11.1133 66.9973 11.1133 67.72C11.1133 68.8723 10.6641 69.7968 9.76562 70.4934C8.86719 71.1835 7.66602 71.5286 6.16211 71.5286C5.18555 71.5286 4.27409 71.343 3.42773 70.9719C2.58138 70.5943 1.92708 70.08 1.46484 69.429C1.00911 68.7779 0.78125 68.039 0.78125 67.2122H2.66602C2.66602 68.0715 2.98177 68.7519 3.61328 69.2532C4.2513 69.748 5.10091 69.9954 6.16211 69.9954C7.15169 69.9954 7.91016 69.7935 8.4375 69.3899C8.96484 68.9862 9.22852 68.4361 9.22852 67.7395C9.22852 67.0429 8.98438 66.5058 8.49609 66.1282C8.00781 65.7441 7.1224 65.3665 5.83984 64.9954ZM23.5352 57.1145V66.7825C23.5286 68.1236 23.1055 69.2206 22.2656 70.0735C21.4323 70.9264 20.2995 71.4049 18.8672 71.509L18.3691 71.5286C16.8132 71.5286 15.5729 71.1086 14.6484 70.2688C13.724 69.429 13.2552 68.2734 13.2422 66.802V57.1145H15.0977V66.7434C15.0977 67.7721 15.3809 68.5728 15.9473 69.1458C16.5137 69.7122 17.321 69.9954 18.3691 69.9954C19.4303 69.9954 20.2409 69.7122 20.8008 69.1458C21.3672 68.5793 21.6504 67.7818 21.6504 66.7532V57.1145H23.5352ZM34.1309 67.6223H28.1738L26.8359 71.3333H24.9023L30.332 57.1145H31.9727L37.4121 71.3333H35.4883L34.1309 67.6223ZM28.7402 66.0793H33.5742L31.1523 59.429L28.7402 66.0793Z" fill="white"/>
<path d="M41.875 68.9797H48.0957V71.3333H38.9453V57.1145H41.875V68.9797ZM60.8398 64.5461C60.8398 65.9459 60.5924 67.1731 60.0977 68.2278C59.6029 69.2825 58.8932 70.0963 57.9688 70.6692C57.0508 71.2421 55.9961 71.5286 54.8047 71.5286C53.6263 71.5286 52.5749 71.2454 51.6504 70.679C50.7259 70.1125 50.0098 69.3053 49.502 68.2571C48.9941 67.2024 48.737 65.9915 48.7305 64.6243V63.9211C48.7305 62.5214 48.9811 61.2909 49.4824 60.2297C49.9902 59.162 50.7031 58.345 51.6211 57.7786C52.5456 57.2056 53.6003 56.9192 54.7852 56.9192C55.9701 56.9192 57.0215 57.2056 57.9395 57.7786C58.8639 58.345 59.5768 59.162 60.0781 60.2297C60.5859 61.2909 60.8398 62.5181 60.8398 63.9114V64.5461ZM57.8711 63.9016C57.8711 62.4107 57.6042 61.2779 57.0703 60.5032C56.5365 59.7284 55.7747 59.3411 54.7852 59.3411C53.8021 59.3411 53.0436 59.7252 52.5098 60.4934C51.9759 61.2551 51.7057 62.3749 51.6992 63.8528V64.5461C51.6992 65.998 51.9661 67.1243 52.5 67.925C53.0339 68.7258 53.8021 69.1262 54.8047 69.1262C55.7878 69.1262 56.543 68.7421 57.0703 67.9739C57.5977 67.1991 57.8646 66.0728 57.8711 64.595V63.9016ZM74.2188 69.5364C73.6914 70.1679 72.946 70.6594 71.9824 71.011C71.0189 71.356 69.9512 71.5286 68.7793 71.5286C67.5488 71.5286 66.4681 71.2616 65.5371 70.7278C64.6126 70.1874 63.8965 69.4062 63.3887 68.384C62.8874 67.3619 62.6302 66.1607 62.6172 64.7805V63.8137C62.6172 62.3944 62.8548 61.1672 63.3301 60.1321C63.8118 59.0904 64.502 58.2961 65.4004 57.7493C66.3053 57.1959 67.3633 56.9192 68.5742 56.9192C70.2604 56.9192 71.5788 57.3228 72.5293 58.1301C73.4798 58.9309 74.043 60.0995 74.2188 61.636H71.3672C71.237 60.8222 70.9473 60.2265 70.498 59.8489C70.0553 59.4713 69.4434 59.2825 68.6621 59.2825C67.666 59.2825 66.9076 59.6568 66.3867 60.4055C65.8659 61.1542 65.6022 62.2675 65.5957 63.7454V64.6536C65.5957 66.1444 65.8789 67.2708 66.4453 68.0325C67.0117 68.7942 67.8418 69.175 68.9355 69.175C70.0358 69.175 70.8203 68.9407 71.2891 68.4719V66.0208H68.623V63.8625H74.2188V69.5364ZM88.2812 64.5461C88.2812 65.9459 88.0339 67.1731 87.5391 68.2278C87.0443 69.2825 86.3346 70.0963 85.4102 70.6692C84.4922 71.2421 83.4375 71.5286 82.2461 71.5286C81.0677 71.5286 80.0163 71.2454 79.0918 70.679C78.1673 70.1125 77.4512 69.3053 76.9434 68.2571C76.4355 67.2024 76.1784 65.9915 76.1719 64.6243V63.9211C76.1719 62.5214 76.4225 61.2909 76.9238 60.2297C77.4316 59.162 78.1445 58.345 79.0625 57.7786C79.987 57.2056 81.0417 56.9192 82.2266 56.9192C83.4115 56.9192 84.4629 57.2056 85.3809 57.7786C86.3053 58.345 87.0182 59.162 87.5195 60.2297C88.0273 61.2909 88.2812 62.5181 88.2812 63.9114V64.5461ZM85.3125 63.9016C85.3125 62.4107 85.0456 61.2779 84.5117 60.5032C83.9779 59.7284 83.2161 59.3411 82.2266 59.3411C81.2435 59.3411 80.485 59.7252 79.9512 60.4934C79.4173 61.2551 79.1471 62.3749 79.1406 63.8528V64.5461C79.1406 65.998 79.4076 67.1243 79.9414 67.925C80.4753 68.7258 81.2435 69.1262 82.2461 69.1262C83.2292 69.1262 83.9844 68.7421 84.5117 67.9739C85.0391 67.1991 85.306 66.0728 85.3125 64.595V63.9016Z" fill="#74AF45"/>
</svg>
