<svg width="42" height="50" viewBox="0 0 42 50" fill="none" xmlns="http://www.w3.org/2000/svg">
<path d="M13.2567 37.1788C13.1602 37.3543 13.0106 37.4069 12.8703 37.4069C12.7299 37.4069 12.5895 37.3543 12.493 37.1788L11.4832 35.2825V39.1273C11.4832 39.3646 11.1937 39.4875 10.9129 39.4875C10.623 39.4875 10.3422 39.3646 10.3422 39.1273V33.6407C10.3422 33.2195 10.623 33.0704 10.9129 33.0704C11.3253 33.0704 11.5099 33.1581 11.7995 33.6758L12.8794 35.6422L13.959 33.6758C14.2489 33.1581 14.4419 33.0704 14.8547 33.0704C15.1442 33.0704 15.425 33.2195 15.425 33.6407V39.1273C15.425 39.3646 15.1355 39.4875 14.8547 39.4875C14.5648 39.4875 14.284 39.3646 14.284 39.1273V35.3527L13.2567 37.1788Z" fill="white"/>
<path d="M18.6023 35.8265H19.9367C20.1649 35.8265 20.2965 36.0462 20.2965 36.2831C20.2965 36.4849 20.1824 36.7222 19.9367 36.7222H18.6023V38.4865H21.0865C21.315 38.4865 21.4466 38.7234 21.4466 38.9957C21.4466 39.2326 21.3326 39.4875 21.0865 39.4875H17.9614C17.707 39.4875 17.4609 39.3642 17.4609 39.1273V33.4301C17.4609 33.1932 17.7066 33.07 17.9614 33.07H21.0865C21.3326 33.07 21.4466 33.3248 21.4466 33.5617C21.4466 33.8341 21.315 34.071 21.0865 34.071H18.6023V35.8265Z" fill="white"/>
<path d="M26.1254 39.1273L24.2379 35.5984V39.1273C24.2379 39.3646 23.9483 39.4875 23.6672 39.4875C23.3776 39.4875 23.0965 39.3646 23.0965 39.1273V33.4301C23.0965 33.1844 23.3776 33.0704 23.6672 33.0704C24.0799 33.0704 24.2466 33.1581 24.519 33.6758L26.2132 36.9503V33.4213C26.2132 33.1757 26.4939 33.07 26.7838 33.07C27.0646 33.07 27.3542 33.1753 27.3542 33.4213V39.1273C27.3542 39.3642 27.0646 39.4875 26.7838 39.4875C26.5115 39.4875 26.2746 39.3997 26.1254 39.1273Z" fill="white"/>
<path d="M32.437 33.4213C32.437 33.1757 32.7177 33.0704 33.0073 33.0704C33.2884 33.0704 33.578 33.1757 33.578 33.4213V37.5298C33.578 38.9957 32.6475 39.5401 31.4711 39.5401C30.2858 39.5401 29.3642 38.9957 29.3642 37.5298V33.4213C29.3642 33.1757 29.6449 33.0704 29.9349 33.0704C30.2156 33.0704 30.5052 33.1757 30.5052 33.4213V37.5298C30.5052 38.2145 30.8653 38.5395 31.4711 38.5395C32.0768 38.5395 32.4366 38.2145 32.4366 37.5298L32.437 33.4213Z" fill="white"/>
<path d="M34.6938 41.2254H30.5208C30.1111 41.2254 29.7792 41.5573 29.7792 41.9666C29.7792 42.3763 30.1111 42.7078 30.5208 42.7078H34.6938C35.1035 42.7078 35.435 42.3763 35.435 41.9666C35.435 41.5573 35.1035 41.2254 34.6938 41.2254Z" fill="white"/>
<path d="M27.0715 41.2254H10.1824C9.77304 41.2254 9.44116 41.5573 9.44116 41.9666C9.44116 42.3763 9.77304 42.7078 10.1824 42.7078H27.0715C27.4812 42.7078 27.8127 42.3763 27.8127 41.9666C27.8127 41.5573 27.4812 41.2254 27.0715 41.2254Z" fill="white"/>
<path d="M34.6938 29.9065H10.1824C9.77304 29.9065 9.44116 30.2383 9.44116 30.6477C9.44116 31.057 9.77304 31.3889 10.1824 31.3889H34.6938C35.1035 31.3889 35.435 31.057 35.435 30.6477C35.435 30.2383 35.1035 29.9065 34.6938 29.9065Z" fill="white"/>
<path d="M34.2814 20.7157H33.5619C33.2842 15.6082 29.5507 11.4052 24.6644 10.4103L24.8074 9.04274C24.8543 8.59642 24.7086 8.14934 24.4084 7.81632C24.1082 7.48291 23.6786 7.2918 23.23 7.2918H21.6465C21.1975 7.2918 20.7684 7.48329 20.4677 7.81632C20.1675 8.14972 20.0222 8.5968 20.0691 9.04274L20.2122 10.4103C15.3258 11.4052 11.5923 15.6078 11.3146 20.7153H10.5951C9.95882 20.7153 9.44116 21.233 9.44116 21.8693V23.399C9.44116 24.0353 9.95882 24.5529 10.5951 24.5529H34.281C34.9173 24.5529 35.435 24.0353 35.435 23.399V21.8693C35.435 21.2334 34.9177 20.7157 34.2814 20.7157ZM21.5695 8.80852C21.59 8.78601 21.6156 8.77457 21.6465 8.77457H23.23C23.2605 8.77457 23.2865 8.78601 23.3071 8.80852C23.3277 8.83141 23.3365 8.85849 23.333 8.88863L23.1945 10.2131C22.9447 10.1963 22.6925 10.1868 22.4385 10.1868C22.184 10.1868 21.9322 10.1963 21.6824 10.2131L21.5435 8.88863C21.5405 8.85849 21.5492 8.83141 21.5695 8.80852ZM33.9526 23.0705H10.924V22.1981H14.0479C14.4576 22.1981 14.7895 21.8662 14.7895 21.4569C14.7895 21.0476 14.4576 20.7157 14.0479 20.7157H12.8001C13.1167 15.6742 17.3183 11.6695 22.4381 11.6695C27.5583 11.6695 31.7598 15.6742 32.0765 20.7157H17.4972C17.0875 20.7157 16.756 21.0476 16.756 21.4569C16.756 21.8662 17.0875 22.1981 17.4972 22.1981H33.9526V23.0705Z" fill="white"/>
<path d="M39.9894 0H4.8871C3.84643 0 2.99955 0.846863 2.99955 1.88751V3.22647H2.30793C1.03533 3.22647 0 4.26216 0 5.53474C0 6.80733 1.03533 7.84302 2.30793 7.84302H2.99955V11.0126H2.30793C1.03533 11.0126 0 12.048 0 13.3209C0 14.5935 1.03533 15.6288 2.30793 15.6288H2.99955V18.7988H2.30793C1.03533 18.7988 0 19.8341 0 21.1071C0 22.3797 1.03533 23.415 2.30793 23.415H2.99955V26.585H2.30793C1.03533 26.585 0 27.6203 0 28.8929C0 30.1659 1.03533 31.2012 2.30793 31.2012H2.99955V34.3712H2.30793C1.03533 34.3712 0 35.4065 0 36.6791C0 37.952 1.03533 38.9873 2.30793 38.9873H2.99955V42.1574H2.30793C1.03533 42.1574 0 43.1927 0 44.4653C0 45.7378 1.03533 46.7735 2.30793 46.7735H2.99955V48.1125C2.99955 49.1531 3.84643 50 4.8871 50H39.9894C41.0301 50 41.8774 49.1531 41.8774 48.1125V1.88751C41.8774 0.846863 41.0301 0 39.9894 0ZM2.99917 6.36063H2.30793C1.85283 6.36063 1.48242 5.99022 1.48242 5.53474C1.48242 5.07965 1.85283 4.70924 2.30793 4.70924H2.99917V6.36063ZM2.99917 14.1464H2.30793C1.85283 14.1464 1.48242 13.776 1.48242 13.3209C1.48242 12.8654 1.85283 12.4954 2.30793 12.4954H2.99917V14.1464ZM2.99917 21.9326H2.30793C1.85283 21.9326 1.48242 21.5622 1.48242 21.1071C1.48242 20.6516 1.85283 20.2812 2.30793 20.2812H2.99917V21.9326ZM2.99917 29.7188H2.30793C1.85283 29.7188 1.48242 29.3484 1.48242 28.8929C1.48242 28.4378 1.85283 28.0674 2.30793 28.0674H2.99917V29.7188ZM2.99917 37.5046H2.30793C1.85283 37.5046 1.48242 37.1345 1.48242 36.6791C1.48242 36.224 1.85283 35.8536 2.30793 35.8536H2.99917V37.5046ZM2.99917 45.2908H2.30793C1.85283 45.2908 1.48242 44.9203 1.48242 44.4653C1.48242 44.0098 1.85283 43.6398 2.30793 43.6398H2.99917V45.2908ZM40.3946 48.1121C40.3946 48.3356 40.213 48.5176 39.9894 48.5176H4.8871C4.66355 48.5176 4.48197 48.3356 4.48197 48.1121V1.88751C4.48197 1.66435 4.66355 1.48239 4.8871 1.48239H39.9894C40.213 1.48239 40.3946 1.66435 40.3946 1.88751V48.1121Z" fill="white"/>
</svg>
