<svg width="50" height="48" viewBox="0 0 50 48" fill="none" xmlns="http://www.w3.org/2000/svg">
<path d="M48.084 9.20424C46.1655 6.59734 42.8057 4.24435 38.6235 2.57894C34.4638 0.922592 29.6341 0.00666335 25.0239 0.000105849C20.4133 -0.0112733 15.5776 0.895205 11.412 2.53873C7.22254 4.1917 3.85467 6.53446 1.92918 9.13519C0.0797703 11.6331 -0.453237 14.3255 0.38768 16.9212C0.933188 18.6051 2.5245 19.7381 4.34842 19.7407L10.5936 19.7465C10.5957 19.7465 10.5977 19.7465 10.5999 19.7465C11.8452 19.7464 13.0152 19.2081 13.8103 18.2689C14.597 17.3398 14.9229 16.1255 14.7045 14.9372C14.6981 14.9024 14.6903 14.8677 14.6814 14.8333L14.3528 13.5717C16.1725 12.7143 20.2956 11.0578 25.0047 11.0841C29.7103 11.1079 33.8305 12.7635 35.6525 13.6213L35.3186 14.8757C35.3091 14.9112 35.3011 14.947 35.2943 14.9829C35.0725 16.1705 35.3948 17.3857 36.1788 18.317C36.9725 19.2602 38.1434 19.8019 39.3919 19.8038L45.6372 19.8095C45.6392 19.8095 45.6414 19.8095 45.6434 19.8095C47.4638 19.8095 49.0556 18.6817 49.6053 17.0013C50.4541 14.4062 49.9281 11.71 48.084 9.20424ZM46.7656 16.0954C46.6176 16.5475 46.1564 16.8628 45.6423 16.8628C45.6418 16.8628 45.6412 16.8628 45.6406 16.8628L39.3954 16.857C39.0356 16.8566 38.6996 16.7022 38.4734 16.4334C38.3504 16.2873 38.1586 15.9834 38.2213 15.5609L38.8426 13.2269C39.0128 12.5872 38.7307 11.9141 38.1525 11.5803C37.9116 11.4412 32.1691 8.17345 25.0199 8.1371C24.9801 8.13691 24.9416 8.13681 24.9019 8.13681C17.7987 8.13681 12.0971 11.3903 11.8566 11.5295C11.2821 11.8622 11.0005 12.5305 11.1664 13.1676L11.7754 15.5053C11.8376 15.9288 11.6445 16.2326 11.521 16.3786C11.2945 16.6461 10.9588 16.7995 10.599 16.7995C10.5984 16.7995 10.5978 16.7995 10.5972 16.7995L4.35194 16.7937C3.83797 16.7929 3.37655 16.476 3.22987 16.023C2.68377 14.3372 3.05662 12.6048 4.33807 10.874C7.74207 6.27641 16.4139 2.94645 24.973 2.94645C24.9882 2.94645 25.0046 2.94645 25.0198 2.94645C33.5874 2.9586 42.2722 6.31884 45.6704 10.9363C46.9486 12.6737 47.3172 14.4094 46.7656 16.0954Z" fill="#74AF45"/>
<path d="M39.1206 26.1053L34.4632 21.2764C34.1815 20.9844 33.7912 20.8192 33.3829 20.8192H30.3731V18.8112C30.3731 17.9975 29.7051 17.3379 28.8811 17.3379C28.0572 17.3379 27.3891 17.9975 27.3891 18.8112V20.8192H22.6116V18.8112C22.6116 17.9975 21.9436 17.3379 21.1196 17.3379C20.2956 17.3379 19.6276 17.9975 19.6276 18.8112V20.8192H16.6179C16.2096 20.8192 15.8191 20.9845 15.5376 21.2764L10.8803 26.1053C7.22879 29.8915 5.21775 34.8561 5.21775 40.0846V46.1457C5.21775 46.9594 5.88572 47.619 6.70975 47.619H43.291C44.115 47.619 44.783 46.9594 44.783 46.1457V40.0846C44.7832 34.856 42.7721 29.8915 39.1206 26.1053ZM8.20174 44.6724V40.0846C8.20174 35.6161 9.92039 31.3733 13.0413 28.1374L17.2575 23.7657H32.7434L36.9596 28.1374C40.0803 31.3731 41.799 35.6161 41.799 40.0846V44.6724H8.20174Z" fill="#74AF45"/>
<path d="M25.0005 26.812C20.6948 26.812 17.192 30.2711 17.192 34.5227C17.192 38.7745 20.6949 42.2336 25.0005 42.2336C29.306 42.2336 32.8089 38.7745 32.8089 34.5227C32.8089 30.271 29.3061 26.812 25.0005 26.812ZM25.0005 39.2869C22.3401 39.2869 20.1759 37.1497 20.1759 34.5227C20.1759 31.8957 22.3402 29.7585 25.0005 29.7585C27.6607 29.7585 29.825 31.8957 29.825 34.5227C29.825 37.1497 27.6607 39.2869 25.0005 39.2869Z" fill="#74AF45"/>
</svg>
