<svg width="35" height="36" viewBox="0 0 35 36" fill="none" xmlns="http://www.w3.org/2000/svg">
<path d="M28.6844 19.8437C27.5661 20.6825 25.9687 19.8839 25.9687 18.486V17.3692C19.7531 17.4931 15.5068 19.6424 13.0159 21.4539C10.2307 23.4795 8.97076 25.535 8.95884 25.5548C8.855 25.7278 8.66947 25.8288 8.47491 25.8288C8.1648 25.8288 7.91056 25.5774 7.91056 25.2644C7.91056 17.1737 14.4929 10.5914 22.5836 10.5914H25.9687V9.4734C25.9687 8.07543 27.5663 7.27695 28.6843 8.1155L34.0969 12.1749C35.3007 13.0778 35.3014 14.8811 34.0969 15.7844L28.6844 19.8437ZM33.4197 13.078L28.0071 9.01853C27.6319 8.73706 27.0974 9.00365 27.0974 9.4734C27.0974 11.5902 27.0971 10.8128 27.0984 12.8484C27.0986 13.1601 26.8461 13.4129 26.5344 13.4131C26.2215 13.4131 25.9699 13.1597 25.9697 12.8491L25.969 11.7201H22.5836C15.7356 11.7201 10.0584 16.828 9.16243 23.4342C12.8916 19.1719 18.9201 16.2351 26.533 16.2349C26.8445 16.2349 27.0974 16.4876 27.0974 16.7993V18.486C27.0974 18.9525 27.6296 19.2241 28.0071 18.9408L33.4197 14.8813C34.0211 14.4303 34.0215 13.5292 33.4197 13.078Z" fill="#74AF45"/>
<path d="M0.88142 13.0428C3.8954 3.85574 13.7697 -1.14107 22.9581 1.8734C23.2542 1.97061 23.4155 2.28939 23.3184 2.58561C23.2212 2.88168 22.9024 3.04294 22.6062 2.94587C14.0121 0.126177 4.7738 4.79912 1.95383 13.3947C-0.865799 21.989 3.80707 31.2271 12.4027 34.047C20.9967 36.8667 30.2351 32.1937 33.0551 23.5982C33.1522 23.302 33.471 23.1409 33.7673 23.2379C34.0634 23.3351 34.2247 23.6539 34.1275 23.9501C31.684 31.3985 24.7768 36.0005 17.5223 36.0001C5.53871 35.9996 -2.80949 24.2934 0.88142 13.0428Z" fill="#74AF45"/>
</svg>
