<svg width="40" height="48" viewBox="0 0 40 48" fill="none" xmlns="http://www.w3.org/2000/svg">
<path d="M36.9642 18.8081L21.8934 3.00434C20.3354 1.3705 17.8 1.37041 16.2419 3.00434C14.8412 4.47301 14.7206 6.71297 15.7549 8.31243L15.734 8.42244C14.6474 14.1199 12.0022 19.3031 8.08402 23.4117L1.17144 30.6604C-0.390348 32.2983 -0.390614 34.9489 1.17144 36.5868L4.93903 40.5376C6.50073 42.1753 9.02863 42.1754 10.5905 40.5376L11.5324 39.5498L18.1259 46.4639C19.6876 48.1017 22.2154 48.1018 23.7772 46.4639C25.3354 44.8301 25.3354 42.1715 23.7772 40.5377L20.9515 37.5745L21.8934 36.5868C23.4552 34.9491 23.4554 32.2985 21.8934 30.6605L21.2533 29.9892C24.4022 27.6773 27.9784 26.0678 31.7974 25.2668L31.9037 25.2446C33.4629 26.3485 35.594 26.171 36.9642 24.7342C38.522 23.1005 38.5221 20.442 36.9642 18.8081ZM8.70671 38.5622C8.18617 39.1079 7.34336 39.108 6.82283 38.5621L3.05524 34.6113C2.53461 34.0652 2.53461 33.1818 3.05524 32.6358L9.64856 25.7218L15.3 31.6481C14.655 32.3245 9.36769 37.869 8.70671 38.5622ZM21.8934 42.513C22.4127 43.0575 22.4127 43.9438 21.8934 44.4884C21.3741 45.0329 20.5289 45.0329 20.0096 44.4884L13.4162 37.5743L15.3 35.5989L21.8934 42.513ZM17.1838 33.6235C17.5843 33.2036 18.1837 32.5604 19.1297 31.7131L20.0096 32.6358C20.5302 33.1818 20.5302 34.0652 20.0096 34.6113L19.0676 35.599L17.1838 33.6235ZM17.2404 29.7321L11.4756 23.6869C14.565 19.9462 16.7773 15.5304 17.961 10.7333L29.5933 22.9313C25.0186 24.1724 20.8078 26.4924 17.2404 29.7321ZM35.0801 22.7587C34.5595 23.3046 33.7169 23.3046 33.1963 22.7587L18.1257 6.95515C17.6051 6.40911 17.6051 5.52569 18.1257 4.97974C18.6463 4.4338 19.4889 4.4338 20.0096 4.97974L35.0801 20.7832C35.5994 21.3278 35.5994 22.214 35.0801 22.7587Z" fill="black"/>
<path d="M10.5905 30.6603C10.0704 30.1148 9.22684 30.1148 8.70666 30.6603L6.82286 32.6357C6.30268 33.1812 6.30268 34.0656 6.82286 34.6111C7.34296 35.1566 8.18657 35.1566 8.70666 34.6111L10.5905 32.6357C11.1106 32.0902 11.1106 31.2058 10.5905 30.6603Z" fill="black"/>
<path d="M28.0113 0C27.2757 0 26.6793 0.625402 26.6793 1.39686V4.19058C26.6793 4.96204 27.2757 5.58744 28.0113 5.58744C28.747 5.58744 29.3434 4.96204 29.3434 4.19058V1.39686C29.3434 0.625402 28.747 0 28.0113 0Z" fill="black"/>
<path d="M38.6679 11.1747H36.0038C35.2681 11.1747 34.6717 11.8001 34.6717 12.5716C34.6717 13.343 35.2681 13.9684 36.0038 13.9684H38.6679C39.4036 13.9684 40 13.343 40 12.5716C40 11.8001 39.4035 11.1747 38.6679 11.1747Z" fill="black"/>
<path d="M36.9457 3.20273C36.4256 2.65725 35.5821 2.65725 35.0619 3.20273L32.3978 5.99645C31.8776 6.54193 31.8776 7.42638 32.3978 7.97186C32.9179 8.51734 33.7614 8.51744 34.2816 7.97186L36.9457 5.17814C37.4659 4.63266 37.4659 3.7483 36.9457 3.20273Z" fill="black"/>
</svg>
